<?xml version="1.0" encoding="iso-8859-1"?>
<!-- Generator: Adobe Illustrator 18.1.1, SVG Export Plug-In . SVG Version: 6.00 Build 0)  -->
<svg version="1.1" xmlns="http://www.w3.org/2000/svg" xmlns:xlink="http://www.w3.org/1999/xlink" x="0px" y="0px"
	 viewBox="0 0 23.813 23.854" style="enable-background:new 0 0 23.813 23.854;" xml:space="preserve">
<g id="A2.svg">
	<g>
		<path style="fill:#DEDFE0;stroke:#DEDFE0;stroke-miterlimit:10;" d="M23.313,22.679c0-0.17-0.063-0.346-0.196-0.477L1.65,0.694
			C1.519,0.566,1.347,0.5,1.174,0.5c-0.162,0-0.333,0.059-0.461,0.182C0.708,0.688,0.7,0.693,0.697,0.695
			C0.566,0.829,0.5,0.998,0.5,1.17v0.003c0,0.002,0,0.002,0,0.002v0.003c0,0.172,0.069,0.344,0.197,0.472l21.461,21.501
			c0.133,0.138,0.309,0.204,0.481,0.202c0.173,0,0.345-0.066,0.477-0.195v-0.001c0,0,0,0,0-0.002
			C23.25,23.024,23.313,22.851,23.313,22.679z M22.969,23.007L22.969,23.007L22.969,23.007L22.969,23.007z"/>
	</g>
</g>
<g id="Layer_1">
</g>
</svg>
