<?xml version="1.0" encoding="iso-8859-1"?>
<!-- Generator: Adobe Illustrator 18.1.1, SVG Export Plug-In . SVG Version: 6.00 Build 0)  -->
<svg version="1.1" xmlns="http://www.w3.org/2000/svg" xmlns:xlink="http://www.w3.org/1999/xlink" x="0px" y="0px"
	 viewBox="0 0 36.428 36.528" style="enable-background:new 0 0 36.428 36.528;" xml:space="preserve">
<g id="A1.svg">
	<g>
		<path style="fill:#6D6E71;stroke:#6D6E71;stroke-miterlimit:10;" d="M35.73,35.829c-0.134,0.133-0.307,0.199-0.477,0.199
			c-0.172,0-0.348-0.069-0.48-0.202l-5.312-5.331c-0.131-0.128-0.197-0.298-0.197-0.47l0,0c0-0.003,0-0.006,0-0.011
			c0-0.172,0.069-0.344,0.197-0.472c0.13-0.127,0.298-0.195,0.468-0.195c0.005-0.002,0.007-0.002,0.012-0.002
			c0.001,0,0.004,0,0.004,0.002c0.17,0,0.341,0.066,0.472,0.194l5.312,5.333c0.131,0.131,0.197,0.305,0.197,0.477
			C35.928,35.524,35.862,35.696,35.73,35.829z"/>
		<path style="fill:#DEDFE0;stroke:#DEDFE0;stroke-miterlimit:10;" d="M23.313,22.679c0-0.17-0.065-0.346-0.197-0.477L1.65,0.694
			C1.518,0.566,1.346,0.5,1.173,0.5c-0.162,0-0.333,0.059-0.461,0.182C0.707,0.688,0.7,0.693,0.696,0.695
			C0.565,0.829,0.5,0.998,0.5,1.17v0.003c0,0.002,0,0.002,0,0.002v0.003c0,0.172,0.068,0.344,0.196,0.472l21.462,21.501
			c0.133,0.138,0.309,0.204,0.481,0.202c0.173,0,0.345-0.066,0.477-0.195v-0.001c0,0,0,0,0-0.002
			C23.249,23.024,23.313,22.851,23.313,22.679z M22.968,23.007L22.968,23.007L22.968,23.007L22.968,23.007z"/>
	</g>
</g>
<g id="Layer_1">
</g>
</svg>
